<svg width="144" height="35" fill="none" xmlns="http://www.w3.org/2000/svg"><path d="M49.952 27.684V1.404h5.904V22.5h10.296v5.184h-16.2ZM72.87 6.012c-1.08 0-1.884-.276-2.412-.828-.504-.576-.756-1.296-.756-2.16 0-.888.252-1.608.756-2.16C70.986.288 71.79 0 72.87 0c1.08 0 1.872.288 2.376.864.528.552.792 1.272.792 2.16 0 .864-.264 1.584-.792 2.16-.504.552-1.296.828-2.376.828Zm-2.232 21.672v-15.48H68.01V7.956h8.388v19.728h-5.76ZM81.726 27.684V7.956h4.572v5.04c.792-3.768 3.012-5.652 6.66-5.652h.252c2.28 0 4.032.756 5.256 2.268 1.224 1.488 1.836 3.756 1.836 6.804v11.268h-5.76V16.092c0-1.056-.312-1.92-.936-2.592-.624-.672-1.464-1.008-2.52-1.008-1.08 0-1.956.348-2.628 1.044-.648.672-.972 1.56-.972 2.664v11.484h-5.76ZM105.21 27.684V1.404h5.76v15.912l7.164-9.36h6.048l-6.48 8.424 7.884 11.304h-6.48l-6.228-9.216h-1.908v9.216h-5.76ZM135.163 28.296c-2.808 0-5.004-.576-6.588-1.728-1.584-1.152-2.424-2.772-2.52-4.86h5.112c.072.624.444 1.188 1.116 1.692.672.48 1.668.72 2.988.72.984 0 1.812-.168 2.484-.504.672-.336 1.008-.84 1.008-1.512 0-.576-.252-1.032-.756-1.368-.504-.36-1.404-.612-2.7-.756l-1.548-.144c-2.376-.264-4.164-.924-5.364-1.98-1.176-1.056-1.764-2.436-1.764-4.14 0-1.392.348-2.556 1.044-3.492.72-.936 1.692-1.644 2.916-2.124 1.224-.48 2.628-.72 4.212-.72 2.544 0 4.584.564 6.12 1.692 1.56 1.104 2.388 2.712 2.484 4.824h-5.112c-.096-.624-.444-1.164-1.044-1.62-.576-.456-1.416-.684-2.52-.684-.888 0-1.596.168-2.124.504-.528.336-.792.792-.792 1.368 0 .552.228.972.684 1.26.456.288 1.2.492 2.232.612l1.548.144c2.4.264 4.272.948 5.616 2.052 1.368 1.08 2.052 2.52 2.052 4.32 0 1.992-.792 3.564-2.376 4.716-1.584 1.152-3.72 1.728-6.408 1.728Z" fill="#5061FC"/><path d="M0 27.099V1.457h7.938l5.866 14.401h.668l5.795-14.401h8.08v25.642h-5.69V5.215l.807.07-6.78 16.615h-5.479L4.391 5.285l.878-.07V27.1H0ZM31.814 34.72v-4.776h4.004c.609 0 1.124-.082 1.545-.246.422-.14.761-.387 1.019-.738.258-.351.468-.831.632-1.44l4.742-19.67h5.34L43.72 28.644c-.375 1.499-.901 2.693-1.58 3.583-.656.89-1.546 1.522-2.67 1.897-1.1.398-2.506.597-4.215.597h-3.442Zm6.041-8.043v-4.39h4.075v4.39h-4.075Zm-2.318 0L29.636 7.85h5.655l5.585 18.827h-5.34Z" fill="#222"/></svg>